<svg width="142" height="98" viewBox="0 0 142 98" fill="none" xmlns="http://www.w3.org/2000/svg">
<g clip-path="url(#clip0_42_1036)">
<path d="M11.3604 61.4973L15.4571 71.4736L19.4366 61.6825C19.5725 61.3457 19.691 61.002 19.7916 60.6528C19.8582 60.4209 19.8952 60.1815 19.9017 59.9402C19.9051 59.8761 19.9051 59.8119 19.9017 59.7478C19.8984 59.697 19.8888 59.6467 19.8733 59.5982V59.559H21.9003V59.5982C21.7204 59.8148 21.57 60.0544 21.453 60.3108C21.2933 60.6421 21.098 61.0483 20.8957 61.5329L15.418 74.609H14.6406L10.6504 64.907L7.02226 74.609H6.25546L1.23931 62.0424C1.11387 61.7478 0.989623 61.4628 0.866556 61.1873C0.738756 60.9165 0.618056 60.6671 0.511556 60.4497C0.405056 60.2324 0.295006 60.0436 0.202706 59.8939C0.142559 59.7902 0.0761695 59.6902 0.00390625 59.5946V59.5554H2.84036V59.5946C2.82849 59.6521 2.82137 59.7105 2.81906 59.7692V59.9153C2.82016 60.1632 2.84633 60.4103 2.89716 60.6528C2.96487 60.9779 3.06477 61.2954 3.19536 61.6006L7.04356 71.3596L10.7178 61.5364L11.3604 61.4973Z" fill="#1C5E3C"/>
<path d="M33.6258 74.2883V74.2492C33.6417 74.1995 33.6513 74.148 33.6542 74.0959C33.6542 74.0247 33.6542 73.9641 33.6542 73.9107C33.6519 73.6707 33.6234 73.4318 33.569 73.1981C33.4844 72.8687 33.3728 72.547 33.2353 72.2361L31.9964 69.4427C31.613 69.4427 31.1053 69.4213 30.4699 69.4213H26.8631C26.3625 69.4213 25.9081 69.4213 25.507 69.4427L24.3284 72.1541C24.2254 72.4107 24.1189 72.685 24.0018 72.9879C23.887 73.2794 23.828 73.5901 23.8278 73.9035C23.8264 73.9778 23.8336 74.0519 23.8491 74.1244C23.8552 74.1656 23.8684 74.2054 23.8882 74.242V74.2812H21.8008V74.242C21.9799 74.0284 22.1347 73.7954 22.2623 73.5472C22.4469 73.2159 22.6457 72.799 22.8658 72.3002L28.7304 59.2383H29.5504L35.1097 71.8014C35.2375 72.0971 35.3724 72.3821 35.5144 72.6601C35.6564 72.938 35.7842 73.1874 35.9085 73.4047C36.0327 73.6221 36.1392 73.8109 36.2351 73.9606C36.3309 74.1102 36.3948 74.2064 36.4303 74.2492V74.2883H33.6258ZM26.9802 68.5448H28.1979H29.4226H30.5728H31.5775L28.7126 61.996L25.8726 68.5626L26.9802 68.5448Z" fill="#1C5E3C"/>
<path d="M41.5525 60.4603C40.8246 60.4564 40.0969 60.4921 39.3728 60.5672C38.7232 60.6385 38.1658 60.7169 37.6937 60.7988C37.147 60.9022 36.6606 61.0126 36.2275 61.1551L36.5257 59.4912L36.8807 59.5126L37.4274 59.5304L38.0629 59.5482H38.6912H39.2202H39.5539H45.3972H45.7309H46.2598H46.8882L47.5236 59.5304L48.0703 59.5126L48.4253 59.4912L48.72 61.1551C48.2833 61.0304 47.7934 60.92 47.2467 60.7988C46.7781 60.7169 46.2172 60.6385 45.5676 60.5672C44.8435 60.4921 44.1158 60.4564 43.3879 60.4603V70.2728C43.3879 70.8536 43.3879 71.3631 43.4127 71.7978C43.4376 72.2325 43.4518 72.6066 43.4766 72.9237C43.5015 73.2408 43.5299 73.5009 43.5654 73.7147C43.5966 73.8948 43.6368 74.0731 43.6861 74.2491V74.2883H41.2366V74.2491C41.2848 74.0733 41.3227 73.8949 41.3502 73.7147C41.3857 73.5009 41.4141 73.2372 41.4425 72.9237C41.4709 72.6101 41.4886 72.2325 41.5028 71.7978C41.517 71.3631 41.5241 70.8536 41.5241 70.2728L41.5525 60.4603Z" fill="#1C5E3C"/>
<path d="M63.1368 61.8142L63.0481 61.857C62.487 61.3459 61.8356 60.9447 61.1275 60.674C60.341 60.3738 59.5053 60.224 58.6638 60.2322C57.8577 60.223 57.0567 60.3606 56.2995 60.6384C55.6076 60.8936 54.9782 61.2945 54.4535 61.8142C53.9214 62.3506 53.5109 62.9959 53.2501 63.7062C52.9514 64.5214 52.8057 65.3852 52.8205 66.2537C52.812 67.246 52.9496 68.2341 53.2288 69.186C53.4755 70.0453 53.8893 70.8469 54.4464 71.5447C54.9921 72.2163 55.6845 72.7527 56.4699 73.1124C57.3627 73.5119 58.3328 73.7066 59.3099 73.6825C59.7024 73.6827 60.0938 73.6421 60.4779 73.5614C60.8632 73.4825 61.2393 73.363 61.5997 73.2051C61.9559 73.0455 62.295 72.8497 62.6114 72.6207C62.9281 72.391 63.2186 72.1269 63.4776 71.8333L63.5877 71.9046L62.7712 74.0032C62.2176 74.2145 61.6444 74.3697 61.0601 74.4664C60.4421 74.5731 59.8163 74.6267 59.1892 74.6267C58.0115 74.6399 56.8401 74.4532 55.7244 74.0744C54.7305 73.741 53.8122 73.2129 53.0229 72.521C52.2634 71.8519 51.6578 71.0252 51.2479 70.0982C50.8162 69.1091 50.6008 68.0388 50.616 66.9592C50.6165 66.3107 50.7012 65.6651 50.868 65.0387C51.0348 64.4102 51.2806 63.8056 51.5993 63.2394C51.9234 62.6664 52.3235 62.1402 52.7886 61.6752C53.2675 61.1908 53.8097 60.7737 54.4003 60.4353C55.0269 60.077 55.6977 59.8027 56.3954 59.6194C57.1661 59.4185 57.9599 59.3202 58.7561 59.3272C60.0031 59.3143 61.2428 59.5193 62.4197 59.9329L63.1368 61.8142Z" fill="#1C5E3C"/>
<path d="M76.6553 67.2408H75.6329L74.2981 67.223H72.7929H71.2629C70.7623 67.223 70.2902 67.223 69.8429 67.223C69.3956 67.223 68.998 67.223 68.6643 67.2515V70.305C68.6643 70.8857 68.6643 71.3952 68.6891 71.8299C68.714 72.2646 68.7282 72.6387 68.753 72.9558C68.7691 73.221 68.7999 73.4851 68.8453 73.7468C68.8738 73.9271 68.9129 74.1056 68.9625 74.2813V74.3204H66.5059V74.2813C66.5449 74.1352 66.584 73.9606 66.623 73.7468C66.6621 73.533 66.6905 73.2694 66.7189 72.9558C66.7473 72.6423 66.7686 72.2646 66.7792 71.8299C66.7899 71.3952 66.8005 70.8857 66.8005 70.305V63.5816C66.8005 63.0008 66.8005 62.4913 66.7792 62.0566C66.7579 61.622 66.7473 61.2443 66.7189 60.9272C66.6905 60.6101 66.6585 60.3428 66.623 60.1291C66.5875 59.9153 66.5449 59.7407 66.5059 59.5946V59.5554H68.9625V59.5946C68.9133 59.7704 68.8742 59.9488 68.8453 60.1291C68.7998 60.3932 68.769 60.6596 68.753 60.9272C68.7282 61.2443 68.7069 61.622 68.6891 62.0566C68.6714 62.4913 68.6643 63.0008 68.6643 63.5816V66.2146C69.0193 66.2146 69.4204 66.236 69.8713 66.2396H71.2913H72.7929L74.2662 66.2111L75.5974 66.1755L76.6624 66.1363V63.5959C76.6624 63.0151 76.6624 62.5056 76.6376 62.0709C76.6127 61.6362 76.6021 61.2585 76.5772 60.9414C76.5524 60.6243 76.5204 60.3571 76.4849 60.1433C76.4494 59.9295 76.4068 59.755 76.3678 59.6089V59.5697H78.8102V59.6089C78.761 59.7846 78.7219 59.9631 78.693 60.1433C78.654 60.3571 78.622 60.6243 78.5936 60.9414C78.5652 61.2585 78.5475 61.6362 78.5333 62.0709C78.5191 62.5056 78.512 63.0151 78.512 63.5959V70.2871C78.512 70.8679 78.512 71.3774 78.5333 71.8121C78.5546 72.2468 78.5688 72.6209 78.5936 72.938C78.6185 73.2551 78.654 73.5152 78.693 73.729C78.7215 73.9093 78.7606 74.0878 78.8102 74.2634V74.3026H76.3607V74.2634C76.3997 74.1174 76.4388 73.9428 76.4778 73.729C76.5169 73.5152 76.5453 73.2516 76.5701 72.938C76.595 72.6245 76.6127 72.2468 76.6305 71.8121C76.6482 71.3774 76.6553 70.8679 76.6553 70.2871V67.2408Z" fill="#1C5E3C"/>
<path d="M88.7717 67.2193V70.2728C88.7717 70.8536 88.7717 71.3631 88.793 71.7977C88.8143 72.2324 88.8249 72.6065 88.8533 72.9237C88.8817 73.2408 88.9137 73.5009 88.9527 73.7146C88.9812 73.895 89.0203 74.0734 89.0699 74.2491V74.2883H86.6204V74.2491C86.6594 74.103 86.6985 73.9284 86.7375 73.7146C86.7766 73.5009 86.805 73.2372 86.8298 72.9237C86.8547 72.6101 86.8724 72.2324 86.8902 71.7977C86.9079 71.3631 86.915 70.8536 86.915 70.2728V67.4224L82.3391 61.1765C82.1829 60.9627 82.0267 60.7667 81.874 60.5886C81.7363 60.4258 81.5906 60.27 81.4374 60.1218C81.3025 59.99 81.1782 59.876 81.0824 59.7869C80.9865 59.6978 80.8871 59.6337 80.8232 59.591V59.5518H83.9259C83.9528 59.8193 84.0198 60.0811 84.1247 60.3285C84.3075 60.7795 84.546 61.2057 84.8347 61.5969L88.193 66.2288L91.4768 61.4081L91.8318 60.8843C91.9454 60.7062 92.0519 60.528 92.1477 60.3712C92.2329 60.2248 92.31 60.0737 92.3785 59.9187C92.4301 59.8068 92.459 59.6857 92.4637 59.5624H94.4623V59.6016C94.3097 59.7335 94.1073 59.9259 93.8588 60.1824C93.5558 60.4982 93.2814 60.8404 93.0388 61.205L88.7717 67.2193Z" fill="#1C5E3C"/>
<path d="M103.354 59.3095C104.427 59.2962 105.494 59.4823 106.5 59.8582C107.423 60.212 108.268 60.746 108.985 61.4295C109.695 62.1167 110.256 62.944 110.632 63.8594C111.036 64.8544 111.238 65.9205 111.225 66.9949C111.225 67.6416 111.15 68.2861 111.001 68.9153C110.853 69.5336 110.631 70.1318 110.341 70.6968C110.052 71.2583 109.694 71.7814 109.276 72.2538C108.852 72.73 108.365 73.1449 107.827 73.4866C107.269 73.8397 106.664 74.1131 106.031 74.299C105.339 74.4986 104.621 74.597 103.901 74.5912C102.824 74.6016 101.755 74.4144 100.745 74.0389C99.8137 73.6963 98.9611 73.1678 98.2388 72.4854C97.5282 71.8012 96.9673 70.9761 96.5916 70.0626C96.1864 69.0667 95.9848 67.9992 95.9987 66.9236C96.0083 65.6343 96.3222 64.3657 96.9146 63.2217C97.2032 62.6577 97.5609 62.1322 97.9796 61.6575C98.4019 61.1792 98.8881 60.762 99.4245 60.4176C99.9832 60.062 100.589 59.7873 101.224 59.6017C101.917 59.4015 102.634 59.3031 103.354 59.3095ZM103.937 73.6826C104.651 73.6922 105.359 73.5526 106.017 73.2728C106.64 73.0015 107.194 72.5937 107.639 72.0793C108.117 71.5215 108.479 70.8733 108.704 70.1731C108.968 69.3491 109.097 68.4874 109.084 67.6219C109.094 66.6319 108.975 65.6448 108.729 64.686C108.513 63.8461 108.146 63.0528 107.646 62.3452C107.185 61.6944 106.576 61.1622 105.871 60.7917C105.1 60.4072 104.247 60.2153 103.386 60.2323C102.672 60.2234 101.964 60.3616 101.306 60.6385C100.685 60.9054 100.131 61.3069 99.6836 61.8143C99.207 62.3677 98.8449 63.0109 98.6186 63.7062C98.3545 64.5289 98.2262 65.3895 98.2388 66.2538C98.2308 67.2425 98.3501 68.2281 98.5938 69.1861C98.7996 70.0319 99.1608 70.8318 99.6588 71.5448C100.125 72.2021 100.739 72.7393 101.452 73.1125C102.22 73.505 103.074 73.7008 103.937 73.6826Z" fill="#1C5E3C"/>
<path d="M125.113 63.5816C125.113 63.0008 125.113 62.4913 125.095 62.0566C125.077 61.622 125.06 61.2443 125.031 60.9272C125.003 60.6101 124.974 60.3428 124.939 60.1291C124.912 59.949 124.875 59.7706 124.829 59.5946V59.5554H126.65V59.5946C126.601 59.7704 126.562 59.9488 126.533 60.1291C126.494 60.3428 126.465 60.6101 126.441 60.9272C126.416 61.2443 126.38 61.6398 126.38 62.0566C126.38 62.4735 126.352 63.0008 126.352 63.5816V69.122C126.373 69.9727 126.231 70.8194 125.933 71.6161C125.683 72.2682 125.283 72.8518 124.765 73.3192C124.252 73.7694 123.646 74.0993 122.99 74.2848C122.247 74.4918 121.479 74.5937 120.707 74.5877C119.928 74.5938 119.151 74.4967 118.396 74.2991C117.717 74.1238 117.082 73.8069 116.533 73.3691C115.991 72.9229 115.565 72.3521 115.29 71.7052C114.968 70.9145 114.815 70.0649 114.839 69.2111V63.5816C114.839 63.0008 114.839 62.4913 114.818 62.0566C114.797 61.622 114.786 61.2443 114.758 60.9272C114.729 60.6101 114.697 60.3428 114.662 60.1291C114.626 59.9153 114.584 59.7407 114.541 59.5946V59.5554H117.001V59.5946C116.959 59.7407 116.92 59.9188 116.88 60.1291C116.841 60.3393 116.813 60.6101 116.785 60.9272C116.756 61.2443 116.738 61.622 116.724 62.0566C116.71 62.4913 116.703 63.0008 116.703 63.5816V69.3465C116.677 70.0376 116.798 70.7262 117.058 71.3667C117.272 71.8591 117.601 72.2929 118.016 72.6316C118.415 72.9439 118.877 73.1663 119.369 73.2836C120.385 73.5306 121.445 73.5306 122.461 73.2836C122.951 73.1656 123.41 72.9432 123.807 72.6316C124.219 72.2915 124.545 71.858 124.758 71.3667C125.018 70.7262 125.139 70.0376 125.113 69.3465V63.5816Z" fill="#1C5E3C"/>
<path d="M132.702 70.2727C132.702 70.8535 132.702 71.363 132.731 71.7977C132.759 72.2324 132.766 72.6065 132.791 72.9236C132.816 73.2407 132.844 73.5008 132.883 73.7146C132.922 73.9283 132.961 74.1029 133.001 74.249V74.2882H130.544V74.249C130.583 74.1029 130.626 73.9283 130.661 73.7146C130.697 73.5008 130.729 73.2371 130.753 72.9236C130.778 72.61 130.8 72.2359 130.814 71.8012C130.828 71.3665 130.842 70.8606 130.842 70.2727V63.5814C130.842 63.0006 130.842 62.4911 130.814 62.0565C130.785 61.6218 130.778 61.2477 130.753 60.9306C130.729 60.6134 130.7 60.3498 130.661 60.136C130.631 59.9536 130.592 59.7728 130.544 59.5944V59.5552L130.973 59.5944C131.105 59.5944 131.247 59.6194 131.41 59.6229H131.904C132.266 59.6149 132.628 59.5827 132.986 59.5267C133.562 59.4522 134.142 59.4189 134.722 59.427C135.337 59.421 135.949 59.5112 136.536 59.6942C137.066 59.8577 137.559 60.1227 137.988 60.4745C138.397 60.8177 138.723 61.2488 138.943 61.7358C139.184 62.2655 139.306 62.8423 139.298 63.4246C139.303 63.8889 139.238 64.3512 139.107 64.7964C138.877 65.6057 138.403 66.3237 137.75 66.8522C137.427 67.1199 137.068 67.3428 136.685 67.515L140.282 72.5815C140.459 72.8345 140.637 73.0518 140.779 73.2371C140.915 73.4058 141.062 73.5653 141.219 73.7146C141.343 73.838 141.478 73.949 141.623 74.0459C141.747 74.1286 141.881 74.1956 142.021 74.2454V74.2846H139.064C139.023 74.1031 138.955 73.9289 138.862 73.768C138.747 73.5433 138.615 73.3277 138.468 73.1231L134.843 67.996C134.687 67.996 134.531 68.0245 134.374 68.0316C134.218 68.0387 134.055 68.0494 133.892 68.0494C133.728 68.0494 133.508 68.0494 133.313 68.028C133.115 68.0144 132.919 67.9906 132.724 67.9568L132.702 70.2727ZM132.702 67.1587C132.889 67.1993 133.077 67.229 133.267 67.2477C133.458 67.2477 133.643 67.2727 133.821 67.2727C134.304 67.28 134.785 67.2016 135.241 67.0411C135.646 66.8908 136.011 66.6466 136.306 66.3285C136.618 65.991 136.854 65.59 136.998 65.1527C137.171 64.6204 137.254 64.0628 137.243 63.503C137.249 63.0317 137.19 62.5617 137.069 62.1063C136.969 61.719 136.792 61.3556 136.551 61.0374C136.321 60.7458 136.025 60.5136 135.688 60.3605C135.303 60.1921 134.886 60.1094 134.467 60.1182C134.09 60.1116 133.714 60.1366 133.341 60.193C133.125 60.2231 132.912 60.2744 132.706 60.3462L132.702 67.1587Z" fill="#1C5E3C"/>
<path d="M48.007 96.7778C48.8141 96.7778 49.5548 96.7434 50.2293 96.6745C50.9038 96.6068 51.4931 96.5248 52.0043 96.4358C52.546 96.3443 53.0828 96.2253 53.6125 96.0795L53.3143 97.7434C53.2326 97.7434 53.1084 97.7434 52.9593 97.7256L52.4126 97.7042C52.2102 97.7042 51.9972 97.7042 51.7771 97.7042H51.1488H50.6198H50.2861H45.8486V97.6258C45.8865 97.4785 45.9256 97.3004 45.9658 97.0914C46.006 96.8823 46.038 96.6187 46.0616 96.3004C46.09 95.9833 46.1113 95.6091 46.122 95.1745C46.1326 94.7398 46.1433 94.2303 46.1433 93.6495V86.9725C46.1433 86.3917 46.1433 85.8822 46.122 85.4475C46.1007 85.0128 46.09 84.6351 46.0616 84.318C46.0332 84.0009 46.0013 83.7337 45.9658 83.5199C45.9303 83.3062 45.8877 83.1316 45.8486 82.9855V82.9463H48.3052V82.9855C48.2561 83.1612 48.2169 83.3397 48.1881 83.5199C48.1423 83.784 48.1115 84.0505 48.0958 84.318C48.0709 84.6351 48.0496 85.0128 48.0319 85.4475C48.0141 85.8822 48.007 86.3917 48.007 86.9725V96.7778Z" fill="#1C5E3C"/>
<path d="M67.0415 86.9725C67.0415 86.3917 67.0415 85.8822 67.0415 85.4475C67.0415 85.0128 67.006 84.6351 66.9776 84.318C66.9492 84.0009 66.9208 83.7337 66.8853 83.5199C66.8584 83.3399 66.8217 83.1615 66.7752 82.9855V82.9463H68.5964V82.9855C68.5472 83.1612 68.5081 83.3397 68.4792 83.5199C68.4402 83.7337 68.4118 83.9974 68.3869 84.318C68.3621 84.6387 68.3408 85.0128 68.3266 85.4475C68.3124 85.8822 68.2982 86.3917 68.2982 86.9725V92.5236C68.3191 93.3742 68.1769 94.221 67.8793 95.0177C67.629 95.6698 67.2288 96.2534 66.7113 96.7208C66.1984 97.171 65.5921 97.5008 64.9363 97.6864C64.1919 97.8933 63.4225 97.9953 62.6501 97.9892C61.8717 97.995 61.0958 97.898 60.3426 97.7006C59.6632 97.5253 59.0282 97.2085 58.4789 96.7707C57.9364 96.3254 57.5099 95.7543 57.2364 95.1068C56.9149 94.3159 56.7614 93.4665 56.7855 92.6127V86.9725C56.7855 86.3917 56.7855 85.8822 56.7642 85.4475C56.7429 85.0128 56.7323 84.6351 56.7039 84.318C56.6755 84.0009 56.6435 83.7337 56.608 83.5199C56.5725 83.3062 56.5299 83.1316 56.4873 82.9855V82.9463H58.9297V82.9855C58.8871 83.1316 58.8481 83.3097 58.809 83.5199C58.77 83.7301 58.7416 83.9974 58.7132 84.318C58.6848 84.6387 58.6635 85.0128 58.6528 85.4475C58.6422 85.8822 58.6315 86.3917 58.6315 86.9725V92.7374C58.6058 93.4284 58.7268 94.1171 58.9865 94.7576C59.2008 95.25 59.5294 95.6837 59.945 96.0225C60.344 96.3348 60.8053 96.5572 61.2976 96.6745C62.3136 96.9215 63.3736 96.9215 64.3896 96.6745C64.8795 96.5564 65.3383 96.3341 65.7351 96.0225C66.1475 95.6823 66.4735 95.2488 66.6865 94.7576C66.9461 94.1171 67.0671 93.4284 67.0415 92.7374V86.9725Z" fill="#1C5E3C"/>
<path d="M84.3482 85.2053L84.2559 85.2481C83.6961 84.737 83.0459 84.3358 82.3389 84.0652C81.5523 83.7649 80.7167 83.6151 79.8752 83.6233C79.0691 83.6141 78.268 83.7517 77.5109 84.0295C76.8183 84.2855 76.1879 84.6863 75.6613 85.2053C75.1313 85.7433 74.7211 86.3882 74.4579 87.0973C74.1612 87.9131 74.0156 88.7764 74.0283 89.6448C74.0209 90.6373 74.1597 91.6254 74.4401 92.5771C74.6868 93.4364 75.1007 94.238 75.6578 94.9358C76.2038 95.6055 76.8946 96.1416 77.6777 96.5036C78.5707 96.9022 79.5407 97.0969 80.5177 97.0736C81.3058 97.0763 82.0852 96.9099 82.8039 96.5855C83.1609 96.4251 83.501 96.2294 83.8192 96.0012C84.135 95.7704 84.4254 95.5064 84.6854 95.2138L84.7955 95.285L83.979 97.3836C83.4292 97.5898 82.861 97.7425 82.2821 97.8397C81.6653 97.9465 81.0406 98.0002 80.4148 98C79.2371 98.0132 78.0656 97.8265 76.95 97.4477C75.9553 97.1135 75.036 96.5856 74.2449 95.8943C73.4876 95.2232 72.8823 94.397 72.4699 93.4714C72.041 92.4817 71.8268 91.4117 71.8415 90.3325C71.842 89.684 71.9268 89.0384 72.0936 88.412C72.2618 87.7897 72.5075 87.1911 72.8249 86.6305C73.1489 86.0584 73.5477 85.5324 74.0106 85.0664C74.4915 84.5826 75.0347 84.1656 75.6258 83.8264C76.2525 83.4681 76.9232 83.1938 77.6209 83.0105C78.3917 82.8096 79.1854 82.7113 79.9817 82.7183C81.2286 82.7054 82.4683 82.9104 83.6453 83.3241L84.3482 85.2053Z" fill="#1C5E3C"/>
<path d="M87.71 97.6258C87.7526 97.4798 87.7916 97.3016 87.8307 97.0914C87.8697 96.8812 87.8981 96.614 87.9265 96.3004C87.9549 95.9869 87.9727 95.6092 87.9869 95.1745C88.0011 94.7398 88.0082 94.2303 88.0082 93.6496V86.9725C88.0082 86.3917 88.0082 85.8822 87.9869 85.4476C87.9656 85.0129 87.9549 84.6352 87.9265 84.3181C87.8981 84.001 87.8662 83.7338 87.8307 83.52C87.7952 83.3062 87.7526 83.1316 87.71 82.9855V82.9463H90.1701V82.9855C90.1299 83.1304 90.0908 83.3086 90.053 83.52C90.0175 83.7338 89.9855 83.9974 89.9607 84.3181C89.9358 84.6388 89.9181 85.0129 89.9003 85.4476C89.8826 85.8822 89.8755 86.3917 89.8755 86.9725V89.2635L95.8501 84.3644C96.5175 83.8157 96.8548 83.3418 96.8548 82.9392H99.7303V82.9784C99.2936 83.091 98.8794 83.2778 98.5055 83.5307C98.0486 83.8346 97.61 84.1653 97.192 84.5212L91.9096 88.9678L98.2677 95.9762C98.5339 96.2505 98.7611 96.475 98.9457 96.6567C99.1303 96.8384 99.3007 96.9916 99.4427 97.1092C99.5689 97.2157 99.7004 97.3156 99.8368 97.4085C99.9575 97.4869 100.082 97.5653 100.213 97.6401V97.6793H97.2133C97.1727 97.5978 97.1264 97.5192 97.0749 97.4441C97.0074 97.3479 96.9329 97.2482 96.8477 97.1448L96.5708 96.8277L96.2903 96.5178L89.8719 89.4488V93.6638C89.8719 94.2446 89.8719 94.7541 89.8968 95.1888C89.9216 95.6235 89.9358 95.9976 89.9571 96.3147C89.9784 96.6318 90.0139 96.8919 90.0494 97.1057C90.0849 97.3194 90.1275 97.494 90.1666 97.6401V97.6793H87.71V97.6258Z" fill="#1C5E3C"/>
<path d="M78.6007 18.1107V18.1463C78.6126 18.199 78.6197 18.2527 78.622 18.3067V18.4385C78.62 18.6659 78.5962 18.8926 78.551 19.1155C78.4854 19.4108 78.3927 19.6995 78.2741 19.9777L74.607 29.2771L72.6935 26.5479C72.4241 26.1924 72.2022 25.8031 72.0332 25.3899C71.9372 25.163 71.8761 24.9227 71.8522 24.6773V18.1107H71.877L76.0589 12.4099C76.2009 12.214 76.3429 12.0536 76.4849 11.8719C76.6269 11.6902 76.7583 11.5691 76.8825 11.4479C77.0068 11.3268 77.1204 11.2235 77.2162 11.1415C77.3121 11.0596 77.3973 11.0026 77.4541 10.9634V10.9277H74.6141C74.5884 11.1732 74.5262 11.4134 74.4295 11.6403C74.2606 12.0528 74.0399 12.442 73.7727 12.7983L71.0002 16.7461L68.2347 12.8054C67.9676 12.4491 67.7469 12.06 67.578 11.6475C67.4819 11.4205 67.4209 11.1802 67.3969 10.9349H64.5569V10.9705C64.6137 11.0097 64.6918 11.0667 64.7948 11.1486C64.8977 11.2306 65.0042 11.3304 65.1285 11.4551C65.2527 11.5798 65.3876 11.7187 65.5261 11.8791C65.6645 12.0394 65.8101 12.2354 65.9521 12.4171L70.134 18.1178V24.6809C70.1101 24.9263 70.049 25.1665 69.9529 25.3935C69.784 25.8067 69.5621 26.196 69.2926 26.5514L67.3792 29.2807L63.712 19.9813C63.5935 19.703 63.5008 19.4144 63.4351 19.119C63.39 18.8962 63.3662 18.6695 63.3641 18.4421V18.3102C63.3664 18.2563 63.3736 18.2026 63.3854 18.1499V18.1143H60.7939V18.1499C60.8613 18.2373 60.923 18.3289 60.9785 18.4243C61.0637 18.5597 61.1525 18.7307 61.259 18.9302C61.3655 19.1297 61.4684 19.3578 61.5856 19.6072C61.7027 19.8566 61.8163 20.1167 61.9406 20.3839L65.5296 29.3805C65.8234 30.1136 65.8853 30.9196 65.7071 31.6893H67.546L70.1482 28.1263V33.6917C70.1482 33.9446 70.1482 35.1169 70.1482 35.5694C70.1482 36.0219 70.1482 36.5741 70.1482 36.7808C70.1482 37.1798 70.1198 37.5219 70.0914 37.8069C70.063 38.092 70.0381 38.3378 70.0062 38.5195C69.9778 38.684 69.941 38.8469 69.8961 39.0077V39.0433H74.2413H74.7241H75.2992H75.8779H76.3784L76.7334 39.0647L77.0032 37.2048C76.5201 37.3331 76.0308 37.4366 75.5371 37.5148C75.0638 37.5955 74.5242 37.6668 73.9183 37.7285C73.2435 37.7954 72.5658 37.8275 71.8877 37.8247V28.1477L74.4898 31.7106H76.3287C76.1505 30.941 76.2125 30.1349 76.5062 29.4018L80.0598 20.3803C80.1698 20.1131 80.287 19.853 80.4148 19.6036C80.5426 19.3542 80.642 19.1262 80.7414 18.9266C80.8408 18.7271 80.9366 18.5703 81.0218 18.4207C81.0774 18.3254 81.1391 18.2337 81.2064 18.1463V18.1107H78.6007Z" fill="#DBA842"/>
<path d="M60.4498 43.3652C60.1208 43.1764 59.7435 43.0896 59.3655 43.1159C58.9874 43.1422 58.6256 43.2804 58.3258 43.513C58.026 43.7456 57.8015 44.0621 57.6809 44.4226C57.5602 44.7832 57.5487 45.1715 57.6478 45.5386C57.7469 45.9057 57.9522 46.2351 58.2377 46.4851C58.5233 46.7351 58.8763 46.8946 59.2521 46.9435C59.6279 46.9923 60.0097 46.9282 60.3492 46.7593C60.6888 46.5904 60.9708 46.3243 61.1598 45.9947C61.2855 45.7753 61.3669 45.5332 61.3992 45.2822C61.4316 45.0313 61.4143 44.7763 61.3483 44.5321C61.2824 44.2878 61.169 44.059 61.0149 43.8588C60.8607 43.6586 60.6686 43.4908 60.4498 43.3652Z" fill="#1C5E3C"/>
<path d="M83.4673 3.35273C83.1384 3.16391 82.7611 3.07718 82.383 3.10349C82.005 3.12979 81.6432 3.26796 81.3434 3.50054C81.0435 3.73311 80.8191 4.04966 80.6984 4.41019C80.5778 4.77072 80.5663 5.15906 80.6654 5.52615C80.7645 5.89324 80.9698 6.22261 81.2553 6.47266C81.5409 6.7227 81.8938 6.8822 82.2696 6.931C82.6455 6.9798 83.0273 6.91572 83.3668 6.74685C83.7063 6.57798 83.9884 6.3119 84.1773 5.98222C84.3031 5.76285 84.3844 5.52075 84.4168 5.26978C84.4491 5.0188 84.4318 4.76389 84.3659 4.51963C84.2999 4.27538 84.1866 4.04658 84.0324 3.84634C83.8782 3.64611 83.6862 3.47837 83.4673 3.35273Z" fill="#1C5E3C"/>
<path d="M58.5325 3.35283C58.204 3.54246 57.9389 3.82555 57.7706 4.16634C57.6024 4.50712 57.5385 4.89031 57.5871 5.2675C57.6358 5.64469 57.7947 5.99895 58.0438 6.28553C58.2929 6.57212 58.6211 6.77816 58.9869 6.87765C59.3526 6.97713 59.7395 6.96558 60.0988 6.84447C60.458 6.72335 60.7734 6.4981 61.0051 6.19717C61.2368 5.89623 61.3745 5.53312 61.4007 5.1537C61.4269 4.77428 61.3405 4.39557 61.1524 4.06542C60.8989 3.62248 60.4806 3.29863 59.9893 3.16501C59.4981 3.0314 58.9741 3.09895 58.5325 3.35283Z" fill="#1C5E3C"/>
<path d="M50.1086 11.8077C49.7802 11.9974 49.515 12.2805 49.3468 12.6212C49.1785 12.962 49.1147 13.3452 49.1633 13.7224C49.2119 14.0996 49.3709 14.4539 49.62 14.7404C49.8691 15.027 50.1973 15.2331 50.563 15.3326C50.9288 15.432 51.3157 15.4205 51.6749 15.2994C52.0342 15.1783 52.3495 14.953 52.5813 14.6521C52.813 14.3511 52.9507 13.988 52.9769 13.6086C53.0031 13.2292 52.9167 12.8505 52.7285 12.5203C52.6034 12.3007 52.4362 12.1079 52.2367 11.9532C52.0372 11.7984 51.8093 11.6847 51.5659 11.6185C51.3225 11.5523 51.0685 11.5349 50.8185 11.5674C50.5684 11.5999 50.3272 11.6816 50.1086 11.8077Z" fill="#1C5E3C"/>
<path d="M47.0237 23.3589C46.6952 23.5486 46.4301 23.8317 46.2618 24.1724C46.0936 24.5132 46.0297 24.8964 46.0783 25.2736C46.127 25.6508 46.2859 26.0051 46.535 26.2916C46.7842 26.5782 47.1123 26.7843 47.4781 26.8838C47.8438 26.9832 48.2308 26.9717 48.59 26.8506C48.9492 26.7295 49.2646 26.5042 49.4963 26.2033C49.728 25.9023 49.8657 25.5392 49.8919 25.1598C49.9181 24.7804 49.8317 24.4017 49.6436 24.0715C49.3901 23.6286 48.9718 23.3047 48.4805 23.1711C47.9893 23.0375 47.4653 23.1051 47.0237 23.3589Z" fill="#1C5E3C"/>
<path d="M50.1086 34.9174C49.7802 35.107 49.515 35.3901 49.3468 35.7309C49.1785 36.0717 49.1147 36.4548 49.1633 36.832C49.2119 37.2092 49.3709 37.5635 49.62 37.8501C49.8691 38.1366 50.1973 38.3427 50.563 38.4422C50.9288 38.5417 51.3157 38.5301 51.6749 38.409C52.0342 38.2879 52.3495 38.0626 52.5813 37.7617C52.813 37.4608 52.9507 37.0977 52.9769 36.7182C53.0031 36.3388 52.9167 35.9601 52.7285 35.63C52.6034 35.4103 52.4362 35.2175 52.2367 35.0628C52.0372 34.908 51.8093 34.7943 51.5659 34.7281C51.3225 34.6619 51.0685 34.6446 50.8185 34.677C50.5684 34.7095 50.3272 34.7912 50.1086 34.9174Z" fill="#1C5E3C"/>
<path d="M91.8914 38.2451C92.2199 38.0555 92.485 37.7724 92.6532 37.4316C92.8215 37.0908 92.8853 36.7076 92.8367 36.3304C92.7881 35.9533 92.6292 35.599 92.38 35.3124C92.1309 35.0258 91.8027 34.8198 91.437 34.7203C91.0712 34.6208 90.6843 34.6324 90.3251 34.7535C89.9659 34.8746 89.6505 35.0999 89.4188 35.4008C89.187 35.7017 89.0494 36.0648 89.0231 36.4442C88.9969 36.8237 89.0834 37.2024 89.2715 37.5325C89.3967 37.7522 89.5638 37.9449 89.7633 38.0997C89.9628 38.2544 90.1908 38.3682 90.4341 38.4344C90.6775 38.5006 90.9315 38.5179 91.1815 38.4854C91.4316 38.453 91.6728 38.3713 91.8914 38.2451Z" fill="#1C5E3C"/>
<path d="M94.9764 26.6939C95.3048 26.5042 95.5699 26.2211 95.7382 25.8803C95.9064 25.5396 95.9703 25.1564 95.9217 24.7792C95.873 24.402 95.7141 24.0477 95.465 23.7612C95.2159 23.4746 94.8877 23.2685 94.5219 23.169C94.1562 23.0696 93.7693 23.0811 93.4101 23.2022C93.0508 23.3233 92.7354 23.5486 92.5037 23.8495C92.272 24.1505 92.1343 24.5136 92.1081 24.893C92.0819 25.2724 92.1683 25.6511 92.3564 25.9813C92.6099 26.4242 93.0282 26.7481 93.5195 26.8817C94.0107 27.0153 94.5347 26.9477 94.9764 26.6939Z" fill="#1C5E3C"/>
<path d="M91.8914 15.1426C92.2199 14.953 92.485 14.6699 92.6532 14.3291C92.8215 13.9883 92.8853 13.6051 92.8367 13.2279C92.7881 12.8507 92.6292 12.4965 92.38 12.2099C92.1309 11.9233 91.8027 11.7172 91.437 11.6178C91.0712 11.5183 90.6843 11.5298 90.3251 11.6509C89.9659 11.7721 89.6505 11.9973 89.4188 12.2982C89.187 12.5992 89.0494 12.9623 89.0231 13.3417C88.9969 13.7211 89.0834 14.0998 89.2715 14.43C89.3967 14.6497 89.5638 14.8424 89.7633 14.9972C89.9628 15.1519 90.1908 15.2656 90.4341 15.3318C90.6775 15.398 90.9315 15.4154 91.1815 15.3829C91.4316 15.3504 91.6728 15.2688 91.8914 15.1426Z" fill="#1C5E3C"/>
<path d="M81.551 43.3651C81.2225 43.5547 80.9574 43.8378 80.7892 44.1786C80.6209 44.5194 80.5571 44.9026 80.6057 45.2798C80.6543 45.657 80.8132 46.0112 81.0624 46.2978C81.3115 46.5844 81.6397 46.7904 82.0054 46.8899C82.3712 46.9894 82.7581 46.9779 83.1173 46.8568C83.4765 46.7356 83.7919 46.5104 84.0237 46.2094C84.2554 45.9085 84.393 45.5454 84.4193 45.166C84.4455 44.7866 84.359 44.4079 84.1709 44.0777C84.0457 43.858 83.8786 43.6653 83.6791 43.5105C83.4796 43.3558 83.2516 43.2421 83.0083 43.1759C82.7649 43.1097 82.5109 43.0923 82.2609 43.1248C82.0108 43.1573 81.7696 43.2389 81.551 43.3651Z" fill="#1C5E3C"/>
<path d="M71 3.84803C72.0587 3.84803 72.917 2.98662 72.917 1.92401C72.917 0.86141 72.0587 0 71 0C69.9413 0 69.083 0.86141 69.083 1.92401C69.083 2.98662 69.9413 3.84803 71 3.84803Z" fill="#1C5E3C"/>
<path d="M71 50.0492C72.0587 50.0492 72.917 49.1878 72.917 48.1252C72.917 47.0626 72.0587 46.2012 71 46.2012C69.9413 46.2012 69.083 47.0626 69.083 48.1252C69.083 49.1878 69.9413 50.0492 71 50.0492Z" fill="#1C5E3C"/>
<path d="M11.3604 61.4973L15.4571 71.4736L19.4366 61.6825C19.5725 61.3457 19.691 61.002 19.7916 60.6528C19.8582 60.4209 19.8952 60.1815 19.9017 59.9402C19.9051 59.8761 19.9051 59.8119 19.9017 59.7478C19.8984 59.697 19.8888 59.6467 19.8733 59.5982V59.559H21.9003V59.5982C21.7204 59.8148 21.57 60.0544 21.453 60.3108C21.2933 60.6421 21.098 61.0483 20.8957 61.5329L15.418 74.609H14.6406L10.6504 64.907L7.02226 74.609H6.25546L1.23931 62.0424C1.11387 61.7478 0.989623 61.4628 0.866556 61.1873C0.738756 60.9165 0.618056 60.6671 0.511556 60.4497C0.405056 60.2324 0.295006 60.0436 0.202706 59.8939C0.142559 59.7902 0.0761695 59.6902 0.00390625 59.5946V59.5554H2.84036V59.5946C2.82849 59.6521 2.82137 59.7105 2.81906 59.7692V59.9153C2.82016 60.1632 2.84633 60.4103 2.89716 60.6528C2.96487 60.9779 3.06477 61.2954 3.19536 61.6006L7.04356 71.3596L10.7178 61.5364L11.3604 61.4973Z" fill="#1C5E3C"/>
<path d="M33.6258 74.2883V74.2492C33.6417 74.1995 33.6513 74.148 33.6542 74.0959C33.6542 74.0247 33.6542 73.9641 33.6542 73.9107C33.6519 73.6707 33.6234 73.4318 33.569 73.1981C33.4844 72.8687 33.3728 72.547 33.2353 72.2361L31.9964 69.4427C31.613 69.4427 31.1053 69.4213 30.4699 69.4213H26.8631C26.3625 69.4213 25.9081 69.4213 25.507 69.4427L24.3284 72.1541C24.2254 72.4107 24.1189 72.685 24.0018 72.9879C23.887 73.2794 23.828 73.5901 23.8278 73.9035C23.8264 73.9778 23.8336 74.0519 23.8491 74.1244C23.8552 74.1656 23.8684 74.2054 23.8882 74.242V74.2812H21.8008V74.242C21.9799 74.0284 22.1347 73.7954 22.2623 73.5472C22.4469 73.2159 22.6457 72.799 22.8658 72.3002L28.7304 59.2383H29.5504L35.1097 71.8014C35.2375 72.0971 35.3724 72.3821 35.5144 72.6601C35.6564 72.938 35.7842 73.1874 35.9085 73.4047C36.0327 73.6221 36.1392 73.8109 36.2351 73.9606C36.3309 74.1102 36.3948 74.2064 36.4303 74.2492V74.2883H33.6258ZM26.9802 68.5448H28.1979H29.4226H30.5728H31.5775L28.7126 61.996L25.8726 68.5626L26.9802 68.5448Z" fill="#1C5E3C"/>
<path d="M41.5525 60.4603C40.8246 60.4564 40.0969 60.4921 39.3728 60.5672C38.7232 60.6385 38.1658 60.7169 37.6937 60.7988C37.147 60.9022 36.6606 61.0126 36.2275 61.1551L36.5257 59.4912L36.8807 59.5126L37.4274 59.5304L38.0629 59.5482H38.6912H39.2202H39.5539H45.3972H45.7309H46.2598H46.8882L47.5236 59.5304L48.0703 59.5126L48.4253 59.4912L48.72 61.1551C48.2833 61.0304 47.7934 60.92 47.2467 60.7988C46.7781 60.7169 46.2172 60.6385 45.5676 60.5672C44.8435 60.4921 44.1158 60.4564 43.3879 60.4603V70.2728C43.3879 70.8536 43.3879 71.3631 43.4127 71.7978C43.4376 72.2325 43.4518 72.6066 43.4766 72.9237C43.5015 73.2408 43.5299 73.5009 43.5654 73.7147C43.5966 73.8948 43.6368 74.0731 43.6861 74.2491V74.2883H41.2366V74.2491C41.2848 74.0733 41.3227 73.8949 41.3502 73.7147C41.3857 73.5009 41.4141 73.2372 41.4425 72.9237C41.4709 72.6101 41.4886 72.2325 41.5028 71.7978C41.517 71.3631 41.5241 70.8536 41.5241 70.2728L41.5525 60.4603Z" fill="#1C5E3C"/>
<path d="M63.1368 61.8142L63.0481 61.857C62.487 61.3459 61.8356 60.9447 61.1275 60.674C60.341 60.3738 59.5053 60.224 58.6638 60.2322C57.8577 60.223 57.0567 60.3606 56.2995 60.6384C55.6076 60.8936 54.9782 61.2945 54.4535 61.8142C53.9214 62.3506 53.5109 62.9959 53.2501 63.7062C52.9514 64.5214 52.8057 65.3852 52.8205 66.2537C52.812 67.246 52.9496 68.2341 53.2288 69.186C53.4755 70.0453 53.8893 70.8469 54.4464 71.5447C54.9921 72.2163 55.6845 72.7527 56.4699 73.1124C57.3627 73.5119 58.3328 73.7066 59.3099 73.6825C59.7024 73.6827 60.0938 73.6421 60.4779 73.5614C60.8632 73.4825 61.2393 73.363 61.5997 73.2051C61.9559 73.0455 62.295 72.8497 62.6114 72.6207C62.9281 72.391 63.2186 72.1269 63.4776 71.8333L63.5877 71.9046L62.7712 74.0032C62.2176 74.2145 61.6444 74.3697 61.0601 74.4664C60.4421 74.5731 59.8163 74.6267 59.1892 74.6267C58.0115 74.6399 56.8401 74.4532 55.7244 74.0744C54.7305 73.741 53.8122 73.2129 53.0229 72.521C52.2634 71.8519 51.6578 71.0252 51.2479 70.0982C50.8162 69.1091 50.6008 68.0388 50.616 66.9592C50.6165 66.3107 50.7012 65.6651 50.868 65.0387C51.0348 64.4102 51.2806 63.8056 51.5993 63.2394C51.9234 62.6664 52.3235 62.1402 52.7886 61.6752C53.2675 61.1908 53.8097 60.7737 54.4003 60.4353C55.0269 60.077 55.6977 59.8027 56.3954 59.6194C57.1661 59.4185 57.9599 59.3202 58.7561 59.3272C60.0031 59.3143 61.2428 59.5193 62.4197 59.9329L63.1368 61.8142Z" fill="#1C5E3C"/>
<path d="M76.6553 67.2408H75.6329L74.2981 67.223H72.7929H71.2629C70.7623 67.223 70.2902 67.223 69.8429 67.223C69.3956 67.223 68.998 67.223 68.6643 67.2515V70.305C68.6643 70.8857 68.6643 71.3952 68.6891 71.8299C68.714 72.2646 68.7282 72.6387 68.753 72.9558C68.7691 73.221 68.7999 73.4851 68.8453 73.7468C68.8738 73.9271 68.9129 74.1056 68.9625 74.2813V74.3204H66.5059V74.2813C66.5449 74.1352 66.584 73.9606 66.623 73.7468C66.6621 73.533 66.6905 73.2694 66.7189 72.9558C66.7473 72.6423 66.7686 72.2646 66.7792 71.8299C66.7899 71.3952 66.8005 70.8857 66.8005 70.305V63.5816C66.8005 63.0008 66.8005 62.4913 66.7792 62.0566C66.7579 61.622 66.7473 61.2443 66.7189 60.9272C66.6905 60.6101 66.6585 60.3428 66.623 60.1291C66.5875 59.9153 66.5449 59.7407 66.5059 59.5946V59.5554H68.9625V59.5946C68.9133 59.7704 68.8742 59.9488 68.8453 60.1291C68.7998 60.3932 68.769 60.6596 68.753 60.9272C68.7282 61.2443 68.7069 61.622 68.6891 62.0566C68.6714 62.4913 68.6643 63.0008 68.6643 63.5816V66.2146C69.0193 66.2146 69.4204 66.236 69.8713 66.2396H71.2913H72.7929L74.2662 66.2111L75.5974 66.1755L76.6624 66.1363V63.5959C76.6624 63.0151 76.6624 62.5056 76.6376 62.0709C76.6127 61.6362 76.6021 61.2585 76.5772 60.9414C76.5524 60.6243 76.5204 60.3571 76.4849 60.1433C76.4494 59.9295 76.4068 59.755 76.3678 59.6089V59.5697H78.8102V59.6089C78.761 59.7846 78.7219 59.9631 78.693 60.1433C78.654 60.3571 78.622 60.6243 78.5936 60.9414C78.5652 61.2585 78.5475 61.6362 78.5333 62.0709C78.5191 62.5056 78.512 63.0151 78.512 63.5959V70.2871C78.512 70.8679 78.512 71.3774 78.5333 71.8121C78.5546 72.2468 78.5688 72.6209 78.5936 72.938C78.6185 73.2551 78.654 73.5152 78.693 73.729C78.7215 73.9093 78.7606 74.0878 78.8102 74.2634V74.3026H76.3607V74.2634C76.3997 74.1174 76.4388 73.9428 76.4778 73.729C76.5169 73.5152 76.5453 73.2516 76.5701 72.938C76.595 72.6245 76.6127 72.2468 76.6305 71.8121C76.6482 71.3774 76.6553 70.8679 76.6553 70.2871V67.2408Z" fill="#1C5E3C"/>
<path d="M88.7717 67.2193V70.2728C88.7717 70.8536 88.7717 71.3631 88.793 71.7977C88.8143 72.2324 88.8249 72.6065 88.8533 72.9237C88.8817 73.2408 88.9137 73.5009 88.9527 73.7146C88.9812 73.895 89.0203 74.0734 89.0699 74.2491V74.2883H86.6204V74.2491C86.6594 74.103 86.6985 73.9284 86.7375 73.7146C86.7766 73.5009 86.805 73.2372 86.8298 72.9237C86.8547 72.6101 86.8724 72.2324 86.8902 71.7977C86.9079 71.3631 86.915 70.8536 86.915 70.2728V67.4224L82.3391 61.1765C82.1829 60.9627 82.0267 60.7667 81.874 60.5886C81.7363 60.4258 81.5906 60.27 81.4374 60.1218C81.3025 59.99 81.1782 59.876 81.0824 59.7869C80.9865 59.6978 80.8871 59.6337 80.8232 59.591V59.5518H83.9259C83.9528 59.8193 84.0198 60.0811 84.1247 60.3285C84.3075 60.7795 84.546 61.2057 84.8347 61.5969L88.193 66.2288L91.4768 61.4081L91.8318 60.8843C91.9454 60.7062 92.0519 60.528 92.1477 60.3712C92.2329 60.2248 92.31 60.0737 92.3785 59.9187C92.4301 59.8068 92.459 59.6857 92.4637 59.5624H94.4623V59.6016C94.3097 59.7335 94.1073 59.9259 93.8588 60.1824C93.5558 60.4982 93.2814 60.8404 93.0388 61.205L88.7717 67.2193Z" fill="#1C5E3C"/>
<path d="M103.354 59.3095C104.427 59.2962 105.494 59.4823 106.5 59.8582C107.423 60.212 108.268 60.746 108.985 61.4295C109.695 62.1167 110.256 62.944 110.632 63.8594C111.036 64.8544 111.238 65.9205 111.225 66.9949C111.225 67.6416 111.15 68.2861 111.001 68.9153C110.853 69.5336 110.631 70.1318 110.341 70.6968C110.052 71.2583 109.694 71.7814 109.276 72.2538C108.852 72.73 108.365 73.1449 107.827 73.4866C107.269 73.8397 106.664 74.1131 106.031 74.299C105.339 74.4986 104.621 74.597 103.901 74.5912C102.824 74.6016 101.755 74.4144 100.745 74.0389C99.8137 73.6963 98.9611 73.1678 98.2388 72.4854C97.5282 71.8012 96.9673 70.9761 96.5916 70.0626C96.1864 69.0667 95.9848 67.9992 95.9987 66.9236C96.0083 65.6343 96.3222 64.3657 96.9146 63.2217C97.2032 62.6577 97.5609 62.1322 97.9796 61.6575C98.4019 61.1792 98.8881 60.762 99.4245 60.4176C99.9832 60.062 100.589 59.7873 101.224 59.6017C101.917 59.4015 102.634 59.3031 103.354 59.3095ZM103.937 73.6826C104.651 73.6922 105.359 73.5526 106.017 73.2728C106.64 73.0015 107.194 72.5937 107.639 72.0793C108.117 71.5215 108.479 70.8733 108.704 70.1731C108.968 69.3491 109.097 68.4874 109.084 67.6219C109.094 66.6319 108.975 65.6448 108.729 64.686C108.513 63.8461 108.146 63.0528 107.646 62.3452C107.185 61.6944 106.576 61.1622 105.871 60.7917C105.1 60.4072 104.247 60.2153 103.386 60.2323C102.672 60.2234 101.964 60.3616 101.306 60.6385C100.685 60.9054 100.131 61.3069 99.6836 61.8143C99.207 62.3677 98.8449 63.0109 98.6186 63.7062C98.3545 64.5289 98.2262 65.3895 98.2388 66.2538C98.2308 67.2425 98.3501 68.2281 98.5938 69.1861C98.7996 70.0319 99.1608 70.8318 99.6588 71.5448C100.125 72.2021 100.739 72.7393 101.452 73.1125C102.22 73.505 103.074 73.7008 103.937 73.6826Z" fill="#1C5E3C"/>
<path d="M125.113 63.5816C125.113 63.0008 125.113 62.4913 125.095 62.0566C125.077 61.622 125.06 61.2443 125.031 60.9272C125.003 60.6101 124.974 60.3428 124.939 60.1291C124.912 59.949 124.875 59.7706 124.829 59.5946V59.5554H126.65V59.5946C126.601 59.7704 126.562 59.9488 126.533 60.1291C126.494 60.3428 126.465 60.6101 126.441 60.9272C126.416 61.2443 126.38 61.6398 126.38 62.0566C126.38 62.4735 126.352 63.0008 126.352 63.5816V69.122C126.373 69.9727 126.231 70.8194 125.933 71.6161C125.683 72.2682 125.283 72.8518 124.765 73.3192C124.252 73.7694 123.646 74.0993 122.99 74.2848C122.247 74.4918 121.479 74.5937 120.707 74.5877C119.928 74.5938 119.151 74.4967 118.396 74.2991C117.717 74.1238 117.082 73.8069 116.533 73.3691C115.991 72.9229 115.565 72.3521 115.29 71.7052C114.968 70.9145 114.815 70.0649 114.839 69.2111V63.5816C114.839 63.0008 114.839 62.4913 114.818 62.0566C114.797 61.622 114.786 61.2443 114.758 60.9272C114.729 60.6101 114.697 60.3428 114.662 60.1291C114.626 59.9153 114.584 59.7407 114.541 59.5946V59.5554H117.001V59.5946C116.959 59.7407 116.92 59.9188 116.88 60.1291C116.841 60.3393 116.813 60.6101 116.785 60.9272C116.756 61.2443 116.738 61.622 116.724 62.0566C116.71 62.4913 116.703 63.0008 116.703 63.5816V69.3465C116.677 70.0376 116.798 70.7262 117.058 71.3667C117.272 71.8591 117.601 72.2929 118.016 72.6316C118.415 72.9439 118.877 73.1663 119.369 73.2836C120.385 73.5306 121.445 73.5306 122.461 73.2836C122.951 73.1656 123.41 72.9432 123.807 72.6316C124.219 72.2915 124.545 71.858 124.758 71.3667C125.018 70.7262 125.139 70.0376 125.113 69.3465V63.5816Z" fill="#1C5E3C"/>
<path d="M132.702 70.2727C132.702 70.8535 132.702 71.363 132.731 71.7977C132.759 72.2324 132.766 72.6065 132.791 72.9236C132.816 73.2407 132.844 73.5008 132.883 73.7146C132.922 73.9283 132.961 74.1029 133.001 74.249V74.2882H130.544V74.249C130.583 74.1029 130.626 73.9283 130.661 73.7146C130.697 73.5008 130.729 73.2371 130.753 72.9236C130.778 72.61 130.8 72.2359 130.814 71.8012C130.828 71.3665 130.842 70.8606 130.842 70.2727V63.5814C130.842 63.0006 130.842 62.4911 130.814 62.0565C130.785 61.6218 130.778 61.2477 130.753 60.9306C130.729 60.6134 130.7 60.3498 130.661 60.136C130.631 59.9536 130.592 59.7728 130.544 59.5944V59.5552L130.973 59.5944C131.105 59.5944 131.247 59.6194 131.41 59.6229H131.904C132.266 59.6149 132.628 59.5827 132.986 59.5267C133.562 59.4522 134.142 59.4189 134.722 59.427C135.337 59.421 135.949 59.5112 136.536 59.6942C137.066 59.8577 137.559 60.1227 137.988 60.4745C138.397 60.8177 138.723 61.2488 138.943 61.7358C139.184 62.2655 139.306 62.8423 139.298 63.4246C139.303 63.8889 139.238 64.3512 139.107 64.7964C138.877 65.6057 138.403 66.3237 137.75 66.8522C137.427 67.1199 137.068 67.3428 136.685 67.515L140.282 72.5815C140.459 72.8345 140.637 73.0518 140.779 73.2371C140.915 73.4058 141.062 73.5653 141.219 73.7146C141.343 73.838 141.478 73.949 141.623 74.0459C141.747 74.1286 141.881 74.1956 142.021 74.2454V74.2846H139.064C139.023 74.1031 138.955 73.9289 138.862 73.768C138.747 73.5433 138.615 73.3277 138.468 73.1231L134.843 67.996C134.687 67.996 134.531 68.0245 134.374 68.0316C134.218 68.0387 134.055 68.0494 133.892 68.0494C133.728 68.0494 133.508 68.0494 133.313 68.028C133.115 68.0144 132.919 67.9906 132.724 67.9568L132.702 70.2727ZM132.702 67.1587C132.889 67.1993 133.077 67.229 133.267 67.2477C133.458 67.2477 133.643 67.2727 133.821 67.2727C134.304 67.28 134.785 67.2016 135.241 67.0411C135.646 66.8908 136.011 66.6466 136.306 66.3285C136.618 65.991 136.854 65.59 136.998 65.1527C137.171 64.6204 137.254 64.0628 137.243 63.503C137.249 63.0317 137.19 62.5617 137.069 62.1063C136.969 61.719 136.792 61.3556 136.551 61.0374C136.321 60.7458 136.025 60.5136 135.688 60.3605C135.303 60.1921 134.886 60.1094 134.467 60.1182C134.09 60.1116 133.714 60.1366 133.341 60.193C133.125 60.2231 132.912 60.2744 132.706 60.3462L132.702 67.1587Z" fill="#1C5E3C"/>
<path d="M48.007 96.7778C48.8141 96.7778 49.5548 96.7434 50.2293 96.6745C50.9038 96.6068 51.4931 96.5248 52.0043 96.4358C52.546 96.3443 53.0828 96.2253 53.6125 96.0795L53.3143 97.7434C53.2326 97.7434 53.1084 97.7434 52.9593 97.7256L52.4126 97.7042C52.2102 97.7042 51.9972 97.7042 51.7771 97.7042H51.1488H50.6198H50.2861H45.8486V97.6258C45.8865 97.4785 45.9256 97.3004 45.9658 97.0914C46.006 96.8823 46.038 96.6187 46.0616 96.3004C46.09 95.9833 46.1113 95.6091 46.122 95.1745C46.1326 94.7398 46.1433 94.2303 46.1433 93.6495V86.9725C46.1433 86.3917 46.1433 85.8822 46.122 85.4475C46.1007 85.0128 46.09 84.6351 46.0616 84.318C46.0332 84.0009 46.0013 83.7337 45.9658 83.5199C45.9303 83.3062 45.8877 83.1316 45.8486 82.9855V82.9463H48.3052V82.9855C48.2561 83.1612 48.2169 83.3397 48.1881 83.5199C48.1423 83.784 48.1115 84.0505 48.0958 84.318C48.0709 84.6351 48.0496 85.0128 48.0319 85.4475C48.0141 85.8822 48.007 86.3917 48.007 86.9725V96.7778Z" fill="#1C5E3C"/>
<path d="M67.0415 86.9725C67.0415 86.3917 67.0415 85.8822 67.0415 85.4475C67.0415 85.0128 67.006 84.6351 66.9776 84.318C66.9492 84.0009 66.9208 83.7337 66.8853 83.5199C66.8584 83.3399 66.8217 83.1615 66.7752 82.9855V82.9463H68.5964V82.9855C68.5472 83.1612 68.5081 83.3397 68.4792 83.5199C68.4402 83.7337 68.4118 83.9974 68.3869 84.318C68.3621 84.6387 68.3408 85.0128 68.3266 85.4475C68.3124 85.8822 68.2982 86.3917 68.2982 86.9725V92.5236C68.3191 93.3742 68.1769 94.221 67.8793 95.0177C67.629 95.6698 67.2288 96.2534 66.7113 96.7208C66.1984 97.171 65.5921 97.5008 64.9363 97.6864C64.1919 97.8933 63.4225 97.9953 62.6501 97.9892C61.8717 97.995 61.0958 97.898 60.3426 97.7006C59.6632 97.5253 59.0282 97.2085 58.4789 96.7707C57.9364 96.3254 57.5099 95.7543 57.2364 95.1068C56.9149 94.3159 56.7614 93.4665 56.7855 92.6127V86.9725C56.7855 86.3917 56.7855 85.8822 56.7642 85.4475C56.7429 85.0128 56.7323 84.6351 56.7039 84.318C56.6755 84.0009 56.6435 83.7337 56.608 83.5199C56.5725 83.3062 56.5299 83.1316 56.4873 82.9855V82.9463H58.9297V82.9855C58.8871 83.1316 58.8481 83.3097 58.809 83.5199C58.77 83.7301 58.7416 83.9974 58.7132 84.318C58.6848 84.6387 58.6635 85.0128 58.6528 85.4475C58.6422 85.8822 58.6315 86.3917 58.6315 86.9725V92.7374C58.6058 93.4284 58.7268 94.1171 58.9865 94.7576C59.2008 95.25 59.5294 95.6837 59.945 96.0225C60.344 96.3348 60.8053 96.5572 61.2976 96.6745C62.3136 96.9215 63.3736 96.9215 64.3896 96.6745C64.8795 96.5564 65.3383 96.3341 65.7351 96.0225C66.1475 95.6823 66.4735 95.2488 66.6865 94.7576C66.9461 94.1171 67.0671 93.4284 67.0415 92.7374V86.9725Z" fill="#1C5E3C"/>
<path d="M84.3482 85.2053L84.2559 85.2481C83.6961 84.737 83.0459 84.3358 82.3389 84.0652C81.5523 83.7649 80.7167 83.6151 79.8752 83.6233C79.0691 83.6141 78.268 83.7517 77.5109 84.0295C76.8183 84.2855 76.1879 84.6863 75.6613 85.2053C75.1313 85.7433 74.7211 86.3882 74.4579 87.0973C74.1612 87.9131 74.0156 88.7764 74.0283 89.6448C74.0209 90.6373 74.1597 91.6254 74.4401 92.5771C74.6868 93.4364 75.1007 94.238 75.6578 94.9358C76.2038 95.6055 76.8946 96.1416 77.6777 96.5036C78.5707 96.9022 79.5407 97.0969 80.5177 97.0736C81.3058 97.0763 82.0852 96.9099 82.8039 96.5855C83.1609 96.4251 83.501 96.2294 83.8192 96.0012C84.135 95.7704 84.4254 95.5064 84.6854 95.2138L84.7955 95.285L83.979 97.3836C83.4292 97.5898 82.861 97.7425 82.2821 97.8397C81.6653 97.9465 81.0406 98.0002 80.4148 98C79.2371 98.0132 78.0656 97.8265 76.95 97.4477C75.9553 97.1135 75.036 96.5856 74.2449 95.8943C73.4876 95.2232 72.8823 94.397 72.4699 93.4714C72.041 92.4817 71.8268 91.4117 71.8415 90.3325C71.842 89.684 71.9268 89.0384 72.0936 88.412C72.2618 87.7897 72.5075 87.1911 72.8249 86.6305C73.1489 86.0584 73.5477 85.5324 74.0106 85.0664C74.4915 84.5826 75.0347 84.1656 75.6258 83.8264C76.2525 83.4681 76.9232 83.1938 77.6209 83.0105C78.3917 82.8096 79.1854 82.7113 79.9817 82.7183C81.2286 82.7054 82.4683 82.9104 83.6453 83.3241L84.3482 85.2053Z" fill="#1C5E3C"/>
<path d="M87.71 97.6258C87.7526 97.4798 87.7916 97.3016 87.8307 97.0914C87.8697 96.8812 87.8981 96.614 87.9265 96.3004C87.9549 95.9869 87.9727 95.6092 87.9869 95.1745C88.0011 94.7398 88.0082 94.2303 88.0082 93.6496V86.9725C88.0082 86.3917 88.0082 85.8822 87.9869 85.4476C87.9656 85.0129 87.9549 84.6352 87.9265 84.3181C87.8981 84.001 87.8662 83.7338 87.8307 83.52C87.7952 83.3062 87.7526 83.1316 87.71 82.9855V82.9463H90.1701V82.9855C90.1299 83.1304 90.0908 83.3086 90.053 83.52C90.0175 83.7338 89.9855 83.9974 89.9607 84.3181C89.9358 84.6388 89.9181 85.0129 89.9003 85.4476C89.8826 85.8822 89.8755 86.3917 89.8755 86.9725V89.2635L95.8501 84.3644C96.5175 83.8157 96.8548 83.3418 96.8548 82.9392H99.7303V82.9784C99.2936 83.091 98.8794 83.2778 98.5055 83.5307C98.0486 83.8346 97.61 84.1653 97.192 84.5212L91.9096 88.9678L98.2677 95.9762C98.5339 96.2505 98.7611 96.475 98.9457 96.6567C99.1303 96.8384 99.3007 96.9916 99.4427 97.1092C99.5689 97.2157 99.7004 97.3156 99.8368 97.4085C99.9575 97.4869 100.082 97.5653 100.213 97.6401V97.6793H97.2133C97.1727 97.5978 97.1264 97.5192 97.0749 97.4441C97.0074 97.3479 96.9329 97.2482 96.8477 97.1448L96.5708 96.8277L96.2903 96.5178L89.8719 89.4488V93.6638C89.8719 94.2446 89.8719 94.7541 89.8968 95.1888C89.9216 95.6235 89.9358 95.9976 89.9571 96.3147C89.9784 96.6318 90.0139 96.8919 90.0494 97.1057C90.0849 97.3194 90.1275 97.494 90.1666 97.6401V97.6793H87.71V97.6258Z" fill="#1C5E3C"/>
<path d="M78.6007 18.1107V18.1463C78.6126 18.199 78.6197 18.2527 78.622 18.3067V18.4385C78.62 18.6659 78.5962 18.8926 78.551 19.1155C78.4854 19.4108 78.3927 19.6995 78.2741 19.9777L74.607 29.2771L72.6935 26.5479C72.4241 26.1924 72.2022 25.8031 72.0332 25.3899C71.9372 25.163 71.8761 24.9227 71.8522 24.6773V18.1107H71.877L76.0589 12.4099C76.2009 12.214 76.3429 12.0536 76.4849 11.8719C76.6269 11.6902 76.7583 11.5691 76.8825 11.4479C77.0068 11.3268 77.1204 11.2235 77.2162 11.1415C77.3121 11.0596 77.3973 11.0026 77.4541 10.9634V10.9277H74.6141C74.5884 11.1732 74.5262 11.4134 74.4295 11.6403C74.2606 12.0528 74.0399 12.442 73.7727 12.7983L71.0002 16.7461L68.2347 12.8054C67.9676 12.4491 67.7469 12.06 67.578 11.6475C67.4819 11.4205 67.4209 11.1802 67.3969 10.9349H64.5569V10.9705C64.6137 11.0097 64.6918 11.0667 64.7948 11.1486C64.8977 11.2306 65.0042 11.3304 65.1285 11.4551C65.2527 11.5798 65.3876 11.7187 65.5261 11.8791C65.6645 12.0394 65.8101 12.2354 65.9521 12.4171L70.134 18.1178V24.6809C70.1101 24.9263 70.049 25.1665 69.9529 25.3935C69.784 25.8067 69.5621 26.196 69.2926 26.5514L67.3792 29.2807L63.712 19.9813C63.5935 19.703 63.5008 19.4144 63.4351 19.119C63.39 18.8962 63.3662 18.6695 63.3641 18.4421V18.3102C63.3664 18.2563 63.3736 18.2026 63.3854 18.1499V18.1143H60.7939V18.1499C60.8613 18.2373 60.923 18.3289 60.9785 18.4243C61.0637 18.5597 61.1525 18.7307 61.259 18.9302C61.3655 19.1297 61.4684 19.3578 61.5856 19.6072C61.7027 19.8566 61.8163 20.1167 61.9406 20.3839L65.5296 29.3805C65.8234 30.1136 65.8853 30.9196 65.7071 31.6893H67.546L70.1482 28.1263V33.6917C70.1482 33.9446 70.1482 35.1169 70.1482 35.5694C70.1482 36.0219 70.1482 36.5741 70.1482 36.7808C70.1482 37.1798 70.1198 37.5219 70.0914 37.8069C70.063 38.092 70.0381 38.3378 70.0062 38.5195C69.9778 38.684 69.941 38.8469 69.8961 39.0077V39.0433H74.2413H74.7241H75.2992H75.8779H76.3784L76.7334 39.0647L77.0032 37.2048C76.5201 37.3331 76.0308 37.4366 75.5371 37.5148C75.0638 37.5955 74.5242 37.6668 73.9183 37.7285C73.2435 37.7954 72.5658 37.8275 71.8877 37.8247V28.1477L74.4898 31.7106H76.3287C76.1505 30.941 76.2125 30.1349 76.5062 29.4018L80.0598 20.3803C80.1698 20.1131 80.287 19.853 80.4148 19.6036C80.5426 19.3542 80.642 19.1262 80.7414 18.9266C80.8408 18.7271 80.9366 18.5703 81.0218 18.4207C81.0774 18.3254 81.1391 18.2337 81.2064 18.1463V18.1107H78.6007Z" fill="#DBA842"/>
<path d="M60.4498 43.3652C60.1208 43.1764 59.7435 43.0896 59.3655 43.1159C58.9874 43.1422 58.6256 43.2804 58.3258 43.513C58.026 43.7456 57.8015 44.0621 57.6809 44.4226C57.5602 44.7832 57.5487 45.1715 57.6478 45.5386C57.7469 45.9057 57.9522 46.2351 58.2377 46.4851C58.5233 46.7351 58.8763 46.8946 59.2521 46.9435C59.6279 46.9923 60.0097 46.9282 60.3492 46.7593C60.6888 46.5904 60.9708 46.3243 61.1598 45.9947C61.2855 45.7753 61.3669 45.5332 61.3992 45.2822C61.4316 45.0313 61.4143 44.7763 61.3483 44.5321C61.2824 44.2878 61.169 44.059 61.0149 43.8588C60.8607 43.6586 60.6686 43.4908 60.4498 43.3652Z" fill="#1C5E3C"/>
<path d="M83.4673 3.35273C83.1384 3.16391 82.7611 3.07718 82.383 3.10349C82.005 3.12979 81.6432 3.26796 81.3434 3.50054C81.0435 3.73311 80.8191 4.04966 80.6984 4.41019C80.5778 4.77072 80.5663 5.15906 80.6654 5.52615C80.7645 5.89324 80.9698 6.22261 81.2553 6.47266C81.5409 6.7227 81.8938 6.8822 82.2696 6.931C82.6455 6.9798 83.0273 6.91572 83.3668 6.74685C83.7063 6.57798 83.9884 6.3119 84.1773 5.98222C84.3031 5.76285 84.3844 5.52075 84.4168 5.26978C84.4491 5.0188 84.4318 4.76389 84.3659 4.51963C84.2999 4.27538 84.1866 4.04658 84.0324 3.84634C83.8782 3.64611 83.6862 3.47837 83.4673 3.35273Z" fill="#1C5E3C"/>
<path d="M58.5325 3.35283C58.204 3.54246 57.9389 3.82555 57.7706 4.16634C57.6024 4.50712 57.5385 4.89031 57.5871 5.2675C57.6358 5.64469 57.7947 5.99895 58.0438 6.28553C58.2929 6.57212 58.6211 6.77816 58.9869 6.87765C59.3526 6.97713 59.7395 6.96558 60.0988 6.84447C60.458 6.72335 60.7734 6.4981 61.0051 6.19717C61.2368 5.89623 61.3745 5.53312 61.4007 5.1537C61.4269 4.77428 61.3405 4.39557 61.1524 4.06542C60.8989 3.62248 60.4806 3.29863 59.9893 3.16501C59.4981 3.0314 58.9741 3.09895 58.5325 3.35283Z" fill="#1C5E3C"/>
<path d="M50.1086 11.8077C49.7802 11.9974 49.515 12.2805 49.3468 12.6212C49.1785 12.962 49.1147 13.3452 49.1633 13.7224C49.2119 14.0996 49.3709 14.4539 49.62 14.7404C49.8691 15.027 50.1973 15.2331 50.563 15.3326C50.9288 15.432 51.3157 15.4205 51.6749 15.2994C52.0342 15.1783 52.3495 14.953 52.5813 14.6521C52.813 14.3511 52.9507 13.988 52.9769 13.6086C53.0031 13.2292 52.9167 12.8505 52.7285 12.5203C52.6034 12.3007 52.4362 12.1079 52.2367 11.9532C52.0372 11.7984 51.8093 11.6847 51.5659 11.6185C51.3225 11.5523 51.0685 11.5349 50.8185 11.5674C50.5684 11.5999 50.3272 11.6816 50.1086 11.8077Z" fill="#1C5E3C"/>
<path d="M47.0237 23.3589C46.6952 23.5486 46.4301 23.8317 46.2618 24.1724C46.0936 24.5132 46.0297 24.8964 46.0783 25.2736C46.127 25.6508 46.2859 26.0051 46.535 26.2916C46.7842 26.5782 47.1123 26.7843 47.4781 26.8838C47.8438 26.9832 48.2308 26.9717 48.59 26.8506C48.9492 26.7295 49.2646 26.5042 49.4963 26.2033C49.728 25.9023 49.8657 25.5392 49.8919 25.1598C49.9181 24.7804 49.8317 24.4017 49.6436 24.0715C49.3901 23.6286 48.9718 23.3047 48.4805 23.1711C47.9893 23.0375 47.4653 23.1051 47.0237 23.3589Z" fill="#1C5E3C"/>
<path d="M50.1086 34.9174C49.7802 35.107 49.515 35.3901 49.3468 35.7309C49.1785 36.0717 49.1147 36.4548 49.1633 36.832C49.2119 37.2092 49.3709 37.5635 49.62 37.8501C49.8691 38.1366 50.1973 38.3427 50.563 38.4422C50.9288 38.5417 51.3157 38.5301 51.6749 38.409C52.0342 38.2879 52.3495 38.0626 52.5813 37.7617C52.813 37.4608 52.9507 37.0977 52.9769 36.7182C53.0031 36.3388 52.9167 35.9601 52.7285 35.63C52.6034 35.4103 52.4362 35.2175 52.2367 35.0628C52.0372 34.908 51.8093 34.7943 51.5659 34.7281C51.3225 34.6619 51.0685 34.6446 50.8185 34.677C50.5684 34.7095 50.3272 34.7912 50.1086 34.9174Z" fill="#1C5E3C"/>
<path d="M91.8914 38.2451C92.2199 38.0555 92.485 37.7724 92.6532 37.4316C92.8215 37.0908 92.8853 36.7076 92.8367 36.3304C92.7881 35.9533 92.6292 35.599 92.38 35.3124C92.1309 35.0258 91.8027 34.8198 91.437 34.7203C91.0712 34.6208 90.6843 34.6324 90.3251 34.7535C89.9659 34.8746 89.6505 35.0999 89.4188 35.4008C89.187 35.7017 89.0494 36.0648 89.0231 36.4442C88.9969 36.8237 89.0834 37.2024 89.2715 37.5325C89.3967 37.7522 89.5638 37.9449 89.7633 38.0997C89.9628 38.2544 90.1908 38.3682 90.4341 38.4344C90.6775 38.5006 90.9315 38.5179 91.1815 38.4854C91.4316 38.453 91.6728 38.3713 91.8914 38.2451Z" fill="#1C5E3C"/>
<path d="M94.9764 26.6939C95.3048 26.5042 95.5699 26.2211 95.7382 25.8803C95.9064 25.5396 95.9703 25.1564 95.9217 24.7792C95.873 24.402 95.7141 24.0477 95.465 23.7612C95.2159 23.4746 94.8877 23.2685 94.5219 23.169C94.1562 23.0696 93.7693 23.0811 93.4101 23.2022C93.0508 23.3233 92.7354 23.5486 92.5037 23.8495C92.272 24.1505 92.1343 24.5136 92.1081 24.893C92.0819 25.2724 92.1683 25.6511 92.3564 25.9813C92.6099 26.4242 93.0282 26.7481 93.5195 26.8817C94.0107 27.0153 94.5347 26.9477 94.9764 26.6939Z" fill="#1C5E3C"/>
<path d="M91.8914 15.1426C92.2199 14.953 92.485 14.6699 92.6532 14.3291C92.8215 13.9883 92.8853 13.6051 92.8367 13.2279C92.7881 12.8507 92.6292 12.4965 92.38 12.2099C92.1309 11.9233 91.8027 11.7172 91.437 11.6178C91.0712 11.5183 90.6843 11.5298 90.3251 11.6509C89.9659 11.7721 89.6505 11.9973 89.4188 12.2982C89.187 12.5992 89.0494 12.9623 89.0231 13.3417C88.9969 13.7211 89.0834 14.0998 89.2715 14.43C89.3967 14.6497 89.5638 14.8424 89.7633 14.9972C89.9628 15.1519 90.1908 15.2656 90.4341 15.3318C90.6775 15.398 90.9315 15.4154 91.1815 15.3829C91.4316 15.3504 91.6728 15.2688 91.8914 15.1426Z" fill="#1C5E3C"/>
<path d="M81.551 43.3651C81.2225 43.5547 80.9574 43.8378 80.7892 44.1786C80.6209 44.5194 80.5571 44.9026 80.6057 45.2798C80.6543 45.657 80.8132 46.0112 81.0624 46.2978C81.3115 46.5844 81.6397 46.7904 82.0054 46.8899C82.3712 46.9894 82.7581 46.9779 83.1173 46.8568C83.4765 46.7356 83.7919 46.5104 84.0237 46.2094C84.2554 45.9085 84.393 45.5454 84.4193 45.166C84.4455 44.7866 84.359 44.4079 84.1709 44.0777C84.0457 43.858 83.8786 43.6653 83.6791 43.5105C83.4796 43.3558 83.2516 43.2421 83.0083 43.1759C82.7649 43.1097 82.5109 43.0923 82.2609 43.1248C82.0108 43.1573 81.7696 43.2389 81.551 43.3651Z" fill="#1C5E3C"/>
<path d="M71 3.84803C72.0587 3.84803 72.917 2.98662 72.917 1.92401C72.917 0.86141 72.0587 0 71 0C69.9413 0 69.083 0.86141 69.083 1.92401C69.083 2.98662 69.9413 3.84803 71 3.84803Z" fill="#1C5E3C"/>
<path d="M71 50.0492C72.0587 50.0492 72.917 49.1878 72.917 48.1252C72.917 47.0626 72.0587 46.2012 71 46.2012C69.9413 46.2012 69.083 47.0626 69.083 48.1252C69.083 49.1878 69.9413 50.0492 71 50.0492Z" fill="#1C5E3C"/>
</g>
<defs>
<clipPath id="clip0_42_1036">
<rect width="142" height="98" fill="white"/>
</clipPath>
</defs>
</svg>
